{"title":"Fantastic.Four.2015.720p.HDRip.KORSUB.XviD.MP3-RARBG","uid":12391971,"size":2575769738,"categoryP":"video","categoryS":"movies","magnet":"?xt=urn:btih:a0ca1559a79b5a2b33aac779a654703b46a32fe4&amp;dn=Fantastic.Four.2015.720p.HDRip.KORSUB.XviD.MP3-RARBG&amp;tr=udp%3A%2F%2Ftracker.openbittorrent.com%3A80&amp;tr=udp%3A%2F%2Fopen.demonii.com%3A1337&amp;tr=udp%3A%2F%2Ftracker.coppersurfer.tk%3A6969&amp;tr=udp%3A%2F%2Fexodus.desync.com%3A6969","seeders":3,"leechers":4,"uploader":"vickey1992","files":4,"time":1441900358,"description":"Video\nID                                       : 0\nFormat                                   : MPEG-4 Visual\nFormat profile                           : Simple@L5\nFormat settings, BVOP                    : No\nFormat settings, QPel                    : No\nFormat settings, GMC                     : No warppoints\nFormat settings, Matrix                  : Default (H.263)\nCodec ID                                 : XVID\nCodec ID/Hint                            : XviD\nDuration                                 : 1h 39mn\nBit rate                                 : 3 229 Kbps\nWidth                                    : 1 280 pixels\nHeight                                   : 718 pixels\nDisplay aspect ratio                     : 16:9\nFrame rate                               : 24.000 fps\nColor space                              : YUV\nChroma subsampling                       : 4:2:0\nBit depth                                : 8 bits\nScan type                                : Progressive\nCompression mode                         : Lossy\nBits/(Pixel*Frame)                       : 0.146\nStream size                              : 2.25 GiB (94%)\nWriting library                          : Lavc56.58.100\n\nAudio\nID                                       : 1\nFormat                                   : MPEG Audio\nFormat version                           : Version 1\nFormat profile                           : Layer 3\nMode                                     : Joint stereo\nMode extension                           : MS Stereo\nCodec ID                                 : 55\nCodec ID/Hint                            : MP3\nDuration                                 : 1h 39mn\nBit rate mode                            : Constant\nBit rate                                 : 192 Kbps\nChannel(s)                               : 2 channels\nSampling rate                            : 48.0 KHz\nCompression mode                         : Lossy\nStream size                              : 137 MiB (6%)\nAlignment                                : Aligned on interleaves\nInterleave, duration                     : 24 ms (0.58 video frame)\nInterleave, preload duration             : 504 ms\nWriting library                          : LAME3.99.5\n\n\n\n\n\nNotes : The video source stutters. Nothing we can do right now , but its watchable. Enjoy !","torrent":{"xt":"urn:btih:a0ca1559a79b5a2b33aac779a654703b46a32fe4","amp;dn":"Fantastic.Four.2015.720p.HDRip.KORSUB.XviD.MP3-RARBG","amp;tr":["udp%3A%2F%2Ftracker.openbittorrent.com%3A80","udp%3A%2F%2Fopen.demonii.com%3A1337","udp%3A%2F%2Ftracker.coppersurfer.tk%3A6969","udp%3A%2F%2Fexodus.desync.com%3A6969"],"infoHash":"a0ca1559a79b5a2b33aac779a654703b46a32fe4","infoHashBuffer":{"type":"Buffer","data":[160,202,21,89,167,155,90,43,51,170,199,121,166,84,112,59,70,163,47,228]},"announce":[],"urlList":[]}}